<svg width="25" height="25" viewBox="0 0 25 25" fill="none" xmlns="http://www.w3.org/2000/svg">
<g id="search-lg / filled">
<path id="Solid" fill-rule="evenodd" clip-rule="evenodd" d="M12 2.5C6.75329 2.5 2.5 6.75329 2.5 12C2.5 17.2467 6.75329 21.5 12 21.5C14.2631 21.5 16.3415 20.7086 17.9733 19.3875L20.7929 22.2071C21.1834 22.5976 21.8166 22.5976 22.2071 22.2071C22.5976 21.8166 22.5976 21.1834 22.2071 20.7929L19.3875 17.9733C20.7086 16.3415 21.5 14.2631 21.5 12C21.5 6.75329 17.2467 2.5 12 2.5ZM4.5 12C4.5 7.85786 7.85786 4.5 12 4.5C16.1421 4.5 19.5 7.85786 19.5 12C19.5 16.1421 16.1421 19.5 12 19.5C7.85786 19.5 4.5 16.1421 4.5 12Z" fill="#757575"/>
</g>
</svg>
